<svg width="379" height="55" viewBox="0 0 379 55" fill="none" xmlns="http://www.w3.org/2000/svg">
<g clip-path="url(#clip0)">
<path fill-rule="evenodd" clip-rule="evenodd" d="M34.6334 27.5C34.6334 34.7913 31.7379 41.7841 26.5834 46.9409C21.4289 52.0978 14.4374 54.9966 7.14619 55C6.57194 55 6.01046 55 5.44897 55C12.4022 54.5255 18.9159 51.4287 23.6732 46.3357C28.4306 41.2426 31.0768 34.5332 31.0768 27.5638C31.0768 20.5945 28.4306 13.8851 23.6732 8.79198C18.9159 3.69891 12.4022 0.602104 5.44897 0.127625C6.01046 0.127625 6.57194 0.127625 7.14619 0.127625C14.4154 0.130919 21.3876 3.0122 26.5384 8.14152C31.6892 13.2708 34.5997 20.2309 34.6334 27.5Z" fill="#4F4F4E"/>
<path fill-rule="evenodd" clip-rule="evenodd" d="M66.5615 14.6241L60.6786 23.4548L54.7958 14.6241H47.6879V40.3759H53.9408V23.3782L60.3213 33.2042H60.9083L67.2889 23.3782V40.3759H73.5418V14.6241H66.5615ZM91.1775 14.152C89.4073 14.1106 87.647 14.4267 86.0018 15.0812C84.3565 15.7358 82.8602 16.7154 81.6022 17.9614C80.3442 19.2075 79.3505 20.6944 78.6803 22.3334C78.0101 23.9723 77.6773 25.7295 77.7019 27.5C77.7019 31.0706 79.1203 34.4949 81.645 37.0197C84.1698 39.5445 87.5942 40.9629 91.1647 40.9629C94.7353 40.9629 98.1596 39.5445 100.684 37.0197C103.209 34.4949 104.628 31.0706 104.628 27.5C104.654 25.7307 104.323 23.9742 103.655 22.3355C102.987 20.6968 101.996 19.2095 100.741 17.9624C99.4853 16.7154 97.9915 15.7341 96.3484 15.0772C94.7053 14.4203 92.9466 14.1013 91.1775 14.1392V14.152ZM91.1775 20.1114C92.136 20.1032 93.0861 20.2911 93.9693 20.6634C94.8525 21.0358 95.6503 21.5849 96.3136 22.2769C96.9769 22.9688 97.4917 23.7891 97.8264 24.6873C98.1611 25.5856 98.3086 26.5427 98.2599 27.5C98.3006 28.463 98.1461 29.4243 97.8056 30.326C97.4652 31.2278 96.9458 32.0513 96.2788 32.7471C95.6118 33.4429 94.8109 33.9966 93.9244 34.3749C93.0378 34.7531 92.0839 34.9481 91.1201 34.9481C90.1562 34.9481 89.2023 34.7531 88.3158 34.3749C87.4292 33.9966 86.6283 33.4429 85.9613 32.7471C85.2943 32.0513 84.775 31.2278 84.4345 30.326C84.0941 29.4243 83.9395 28.463 83.9803 27.5C83.9294 26.5373 84.0771 25.5745 84.414 24.6713C84.751 23.768 85.2701 22.9438 85.9391 22.2497C86.6081 21.5555 87.4127 21.0064 88.3028 20.6364C89.193 20.2663 90.1498 20.0833 91.1137 20.0986L91.1775 20.1114ZM124.764 14.6241V25.3944L125.237 30.8434L115.602 14.6241H108.469V40.3759H114.722V29.5928L114.211 24.1439L123.884 40.3631H130.979V14.6241H124.764ZM153.719 20.5835V14.6241H135.981V40.3759H153.719V34.4548H142.234V30.3712H152.686V24.4118H142.234V20.5835H153.719ZM180.02 14.6241H173.027L167.986 25.1137L162.945 14.6241H155.914L164.847 32.2088V40.3759H171.1V32.1323L180.032 14.6241H180.02ZM194.555 14.6241H183.516V40.3759H189.769V32.4258H194.555C200.003 32.4258 203.832 29.1462 203.832 23.4931C203.832 17.8399 200.003 14.6624 194.555 14.6624V14.6241ZM194.299 26.4664H189.769V20.5835H194.299C196.43 20.5835 197.502 21.5789 197.502 23.5313C197.502 25.4838 196.43 26.4791 194.299 26.4791V26.4664ZM214.13 34.4548V14.6241H207.877V40.3759H224.594V34.4548H214.13ZM246.364 40.4142H252.987L243.646 14.6624H235.773L226.432 40.4142H233.055L234.892 35.0801H244.527L246.364 40.4142ZM236.947 29.1207L239.703 21.1067L242.459 29.0824L236.947 29.1207ZM272.154 14.6624V20.6218H265.123V40.3759H258.87V20.5835H251.877V14.6241L272.154 14.6624ZM293.389 20.6218V14.6241H275.638V40.3759H281.891V30.6265H292.342V24.6671H281.891V20.5835L293.389 20.6218ZM309.608 14.2413C307.838 14.2017 306.078 14.5194 304.433 15.1755C302.789 15.8316 301.293 16.8126 300.036 18.0599C298.78 19.3071 297.787 20.795 297.119 22.4346C296.45 24.0741 296.119 25.8317 296.145 27.6021C296.145 31.1727 297.563 34.597 300.088 37.1218C302.613 39.6466 306.037 41.065 309.608 41.065C313.178 41.065 316.603 39.6466 319.128 37.1218C321.652 34.597 323.071 31.1727 323.071 27.6021C323.097 25.8317 322.766 24.0741 322.097 22.4346C321.429 20.795 320.436 19.3071 319.18 18.0599C317.923 16.8126 316.427 15.8316 314.783 15.1755C313.138 14.5194 311.378 14.2017 309.608 14.2413ZM309.608 20.2007C310.572 20.1854 311.529 20.3684 312.419 20.7384C313.309 21.1085 314.113 21.6576 314.782 22.3517C315.451 23.0459 315.971 23.8701 316.308 24.7733C316.645 25.6766 316.792 26.6394 316.741 27.6021C316.782 28.5651 316.628 29.5264 316.287 30.4281C315.947 31.3299 315.427 32.1534 314.76 32.8492C314.093 33.545 313.292 34.0987 312.406 34.477C311.519 34.8552 310.565 35.0502 309.602 35.0502C308.638 35.0502 307.684 34.8552 306.797 34.477C305.911 34.0987 305.11 33.545 304.443 32.8492C303.776 32.1534 303.256 31.3299 302.916 30.4281C302.576 29.5264 302.421 28.5651 302.462 27.6021C302.411 26.6394 302.559 25.6766 302.895 24.7733C303.232 23.8701 303.752 23.0459 304.421 22.3517C305.09 21.6576 305.894 21.1085 306.784 20.7384C307.674 20.3684 308.631 20.1854 309.595 20.2007H309.608ZM341.396 40.478H349.052L342.289 30.9455C345.454 29.9118 347.393 27.449 347.393 23.2889C347.393 17.9165 344.012 14.6752 338.563 14.6752H327.078V40.3759H333.331V31.4432H335.283L341.357 40.3759L341.396 40.478ZM341.102 23.4037C341.102 25.1647 340.068 26.058 337.899 26.058H333.369V20.5835H337.899C339.992 20.5835 341.102 21.5023 341.102 23.3016V23.4037ZM371.231 14.7262L365.348 23.5569L359.465 14.7262H352.37V40.3759H358.585V23.3782L364.965 33.2042H365.552L371.933 23.3782V40.3759H378.186V14.6241L371.231 14.7262Z" fill="#262437"/>
<path fill-rule="evenodd" clip-rule="evenodd" d="M36.8028 27.5C36.8028 34.7935 33.9055 41.7882 28.7482 46.9454C23.591 52.1027 16.5963 55 9.30281 55C8.72856 55 8.16708 55 7.60559 55C14.899 55.0068 21.8965 52.1159 27.0585 46.9635C32.2205 41.811 35.1243 34.819 35.1311 27.5255C35.1379 20.2321 32.2471 13.2346 27.0946 8.07261C21.9421 2.91057 14.9501 0.00676887 7.65663 0C8.21812 0 8.7796 0 9.35385 0C16.6385 0.0135213 23.6201 2.9168 28.7663 8.07259C33.9125 13.2284 36.8028 20.2154 36.8028 27.5Z" fill="#E8AE31"/>
<path fill-rule="evenodd" clip-rule="evenodd" d="M6.31671 43.145V39.3167C4.25271 39.3047 2.23302 38.7169 0.484924 37.6195L1.40372 35.0673C3.03956 36.124 4.94352 36.6908 6.89096 36.7007C9.59629 36.7007 11.4211 35.1439 11.4211 32.9617C11.4211 30.7796 9.94084 29.5673 7.12065 28.4316C3.29235 26.913 0.829472 25.152 0.829472 21.8341C0.829472 18.5162 3.07541 16.2703 6.58469 15.6961V11.8678H8.93272V15.5684C10.6647 15.5669 12.3685 16.0061 13.884 16.8445L12.9269 19.3968C11.4747 18.5397 9.81488 18.0983 8.12878 18.1207C5.19374 18.1207 4.08353 19.8689 4.08353 21.4002C4.08353 23.3782 5.48724 24.3736 8.80511 25.739C12.761 27.3213 14.739 29.3503 14.739 32.6937C14.7111 34.3268 14.0807 35.892 12.9689 37.0886C11.8571 38.2851 10.3424 39.0287 8.71578 39.1763V43.145H6.31671Z" fill="#D8D8D8"/>
<path fill-rule="evenodd" clip-rule="evenodd" d="M5.83179 43.145V39.3167C3.76779 39.3047 1.7481 38.7169 0 37.6195L0.918794 35.0673C2.54733 36.1193 4.44177 36.6859 6.38051 36.7007C9.08585 36.7007 10.9107 35.1439 10.9107 32.9617C10.9107 30.7796 9.44316 29.58 6.63573 28.4316C2.80742 26.913 0.344548 25.152 0.344548 21.8341C0.344548 18.5162 2.5522 16.2831 6.09977 15.7088V11.8805H8.46056V15.5812C10.1925 15.5797 11.8964 16.0188 13.4118 16.8573L12.4548 19.4095C11.0025 18.5525 9.34271 18.1111 7.65661 18.1334C4.72158 18.1334 3.61137 19.8817 3.61137 21.413C3.61137 23.3909 5.01508 24.3863 8.33295 25.7517C12.2633 27.3469 14.2413 29.3376 14.2413 32.7193C14.2075 34.3459 13.5761 35.9032 12.4676 37.0941C11.359 38.285 9.85091 39.0262 8.23086 39.1763V43.145H5.83179Z" fill="#262437"/>
</g>
<defs>
<clipPath id="clip0">
<rect width="378.326" height="55" fill="white"/>
</clipPath>
</defs>
</svg>
